<svg xmlns="http://www.w3.org/2000/svg" xmlns:xlink="http://www.w3.org/1999/xlink" width="50" zoomAndPan="magnify" viewBox="0 0 37.5 37.499999" height="50" preserveAspectRatio="xMidYMid meet" version="1.0"><defs><clipPath id="73ee41cf8b"><path d="M 0 0 L 37.007812 0 L 37.007812 37.007812 L 0 37.007812 Z M 0 0 " clip-rule="nonzero"/></clipPath><clipPath id="52c8145fe7"><path d="M 18.75 0 C 8.394531 0 0 8.394531 0 18.75 C 0 29.105469 8.394531 37.5 18.75 37.5 C 29.105469 37.5 37.5 29.105469 37.5 18.75 C 37.5 8.394531 29.105469 0 18.75 0 " clip-rule="nonzero"/></clipPath><clipPath id="8854774d4c"><path d="M 0 0 L 37.007812 0 L 37.007812 37.007812 L 0 37.007812 Z M 0 0 " clip-rule="nonzero"/></clipPath></defs><g clip-path="url(#73ee41cf8b)"><g clip-path="url(#52c8145fe7)"><path fill="#ffffff" d="M 0 0 L 37.5 0 L 37.5 37.5 L 0 37.5 Z M 0 0 " fill-opacity="1" fill-rule="nonzero"/></g></g><path fill="#f4ba50" d="M 19.554688 25.882812 L 19.027344 27.472656 L 20.617188 26.945312 L 32.691406 14.871094 L 31.628906 13.808594 Z M 19.554688 25.882812 " fill-opacity="1" fill-rule="nonzero"/><g clip-path="url(#8854774d4c)"><path fill="#f4ba50" d="M 33.75 0 L 3.75 0 C 1.683594 0 0 1.683594 0 3.75 L 0 33.75 C 0 35.816406 1.683594 37.5 3.75 37.5 L 33.75 37.5 C 35.816406 37.5 37.5 35.816406 37.5 33.75 L 37.5 3.75 C 37.5 1.683594 35.816406 0 33.75 0 Z M 6.75 6 L 30.75 6 C 31.164062 6 31.5 6.335938 31.5 6.75 C 31.5 7.164062 31.164062 7.5 30.75 7.5 L 6.75 7.5 C 6.335938 7.5 6 7.164062 6 6.75 C 6 6.335938 6.335938 6 6.75 6 Z M 6.75 10.5 L 27.75 10.5 C 28.164062 10.5 28.5 10.835938 28.5 11.25 C 28.5 11.664062 28.164062 12 27.75 12 L 6.75 12 C 6.335938 12 6 11.664062 6 11.25 C 6 10.835938 6.335938 10.5 6.75 10.5 Z M 6.75 15 L 23.25 15 C 23.664062 15 24 15.335938 24 15.75 C 24 16.164062 23.664062 16.5 23.25 16.5 L 6.75 16.5 C 6.335938 16.5 6 16.164062 6 15.75 C 6 15.335938 6.335938 15 6.75 15 Z M 6.75 19.5 L 18.75 19.5 C 19.164062 19.5 19.5 19.835938 19.5 20.25 C 19.5 20.664062 19.164062 21 18.75 21 L 6.75 21 C 6.335938 21 6 20.664062 6 20.25 C 6 19.835938 6.335938 19.5 6.75 19.5 Z M 14.25 30 L 6.75 30 C 6.335938 30 6 29.664062 6 29.25 C 6 28.835938 6.335938 28.5 6.75 28.5 L 14.25 28.5 C 14.664062 28.5 15 28.835938 15 29.25 C 15 29.664062 14.664062 30 14.25 30 Z M 15.75 25.5 L 6.75 25.5 C 6.335938 25.5 6 25.164062 6 24.75 C 6 24.335938 6.335938 24 6.75 24 L 15.75 24 C 16.164062 24 16.5 24.335938 16.5 24.75 C 16.5 25.164062 16.164062 25.5 15.75 25.5 Z M 34.28125 15.402344 L 21.550781 28.128906 C 21.46875 28.210938 21.371094 28.273438 21.257812 28.308594 L 18.078125 29.371094 C 18 29.398438 17.917969 29.410156 17.839844 29.410156 C 17.644531 29.410156 17.453125 29.332031 17.308594 29.191406 C 17.109375 28.988281 17.039062 28.691406 17.128906 28.421875 L 18.1875 25.242188 C 18.226562 25.132812 18.289062 25.03125 18.371094 24.949219 L 31.097656 12.21875 C 31.378906 11.9375 31.878906 11.9375 32.160156 12.21875 L 34.28125 14.339844 C 34.421875 14.480469 34.5 14.671875 34.5 14.871094 C 34.5 15.070312 34.421875 15.261719 34.28125 15.402344 Z M 34.28125 15.402344 " fill-opacity="1" fill-rule="nonzero"/></g></svg>